<?xml version="1.0" standalone="no"?><!DOCTYPE svg PUBLIC "-//W3C//DTD SVG 1.1//EN" "http://www.w3.org/Graphics/SVG/1.1/DTD/svg11.dtd"><svg t="1761988596068" class="icon" viewBox="0 0 1024 1024" version="1.1" xmlns="http://www.w3.org/2000/svg" p-id="41113" xmlns:xlink="http://www.w3.org/1999/xlink" width="1024" height="1024"><path d="M623 448c58.4-36.8 97-101.8 97-176 0-114.8-93.2-208-208-208S304 157.2 304 272c0 74.2 38.8 139.2 97 176H384c-35.4 0-64 28.6-64 64 0 33 25 60 57 63.6L352 800h320l-25-224.4c32-3.6 57-30.6 57-63.6 0-35.4-28.6-64-64-64h-17zM237.2 946.8c-8.4 8.4-13.2 20-13.2 32 0 25 20.2 45.2 45.2 45.2h485.6c25 0 45.2-20.2 45.2-45.2 0-12-4.8-23.6-13.2-32L704 864H320l-82.8 82.8z" p-id="41114" fill="#000000"></path></svg>