<?xml version="1.0" standalone="no"?><!DOCTYPE svg PUBLIC "-//W3C//DTD SVG 1.1//EN" "http://www.w3.org/Graphics/SVG/1.1/DTD/svg11.dtd"><svg t="1761988492274" class="icon" viewBox="0 0 1024 1024" version="1.1" xmlns="http://www.w3.org/2000/svg" p-id="2324" xmlns:xlink="http://www.w3.org/1999/xlink" width="1024" height="1024"><path d="M512 0c35.4 0 64 28.6 64 64v32h32c35.4 0 64 28.6 64 64s-28.6 64-64 64h-32v96h304c44.2 0 80 35.8 80 80 0 10.6-2 21-6.2 30.8L800 800H224L70.2 430.8C66 421 64 410.6 64 400c0-44.2 35.8-80 80-80h304v-96h-32c-35.4 0-64-28.6-64-64s28.6-64 64-64h32V64c0-35.4 28.6-64 64-64zM141.2 946.8L224 864h576l82.8 82.8c8.4 8.4 13.2 20 13.2 32 0 25-20.2 45.2-45.2 45.2H173.2C148.2 1024 128 1003.8 128 978.8c0-12 4.8-23.6 13.2-32z" p-id="2325" fill="#000000"></path></svg>